Aired 2/16/2011

The 22nd season begins with 18 castaways, including Russell Hantz and "Boston" Rob Mariano, arriving in Nicaragua and learning that ousted players are…

General
Complete name:        Survivor Redemption Island S22E01 HDTV_JHW.mp4
Format                           : MPEG-4
Format profile                   : Base Media
Codec ID                         : isom
File size                        : 371 MiB
Duration                         : 51mn 56s
Overall bit rate                 : 998 Kbps
Encoded date                     : UTC 2011-02-17 03:11:28
Tagged date                      : UTC 2011-02-17 03:11:28

Video
ID                               : 2
Format                           : AVC
Format/Info                      : Advanced Video Codec
Format profile                   : Baseline@L3.0
Format settings, CABAC           : No
Format settings, ReFrames        : 1 frame
Codec ID                         : avc1
Codec ID/Info                    : Advanced Video Coding
Duration                         : 51mn 55s
Bit rate mode                    : Constant
Bit rate                         : 900 Kbps
Width                            : 640 pixels
Height                           : 480 pixels
Display aspect ratio             : 4:3
Frame rate mode                  : Constant
Frame rate                       : 23.976 fps
Color space                      : YUV
Chroma subsampling               : 4:2:0
Bit depth                        : 8 bits
Scan type                        : Progressive
Bits/(Pixel*Frame)               : 0.122
Stream size                      : 333 MiB (90%)
Language                         : English

Audio
ID                               : 1
Format                           : AAC
Format/Info                      : Advanced Audio Codec
Format profile                   : LC
Codec ID                         : 40
Duration                         : 51mn 56s
Bit rate mode                    : Constant
Bit rate                         : 96.0 Kbps
Channel(s)                       : 2 channels
Channel positions                : Front: L R
Sampling rate                    : 44.1 KHz
Compression mode                 : Lossy
Stream size                      : 35.7 MiB (10%)
Language                         : English
 
http://img13.imageshack.us/img13/2498/vlcsnap2011021622h33m53.png
 
http://img594.imageshack.us/img594/8040/vlcsnap2011021622h34m09.png
 
http://img138.imageshack.us/img138/4131/vlcsnap2011021622h34m11.png
 
http://img401.imageshack.us/img401/7415/vlcsnap2011021622h34m23.png
 
http://img9.imageshack.us/img9/1909/vlcsnap2011021622h34m37.png